<svg width="14" height="14" viewBox="0 0 14 14" fill="none" xmlns="http://www.w3.org/2000/svg">
<path d="M6.99996 0C4.2042 0 1.92969 2.27451 1.92969 5.07024C1.92969 8.53983 6.46708 13.6334 6.66027 13.8485C6.84172 14.0506 7.15852 14.0503 7.33965 13.8485C7.53283 13.6334 12.0702 8.53983 12.0702 5.07024C12.0702 2.27451 9.79569 0 6.99996 0ZM6.99996 12.8442C5.47289 11.0302 2.84275 7.4515 2.84275 5.0703C2.84275 2.77796 4.70765 0.913062 6.99996 0.913062C9.29227 0.913062 11.1572 2.77796 11.1572 5.07027C11.1571 7.45158 8.52741 11.0296 6.99996 12.8442Z" fill="black"/>
<path d="M7.00017 2.51953C5.59355 2.51953 4.44922 3.66389 4.44922 5.07051C4.44922 6.47713 5.59358 7.62149 7.00017 7.62149C8.40676 7.62149 9.5511 6.47713 9.5511 5.07051C9.5511 3.66389 8.40676 2.51953 7.00017 2.51953ZM7.00017 6.70843C6.09701 6.70843 5.36228 5.97368 5.36228 5.07051C5.36228 4.16735 6.09704 3.43259 7.00017 3.43259C7.90331 3.43259 8.63806 4.16735 8.63806 5.07051C8.63806 5.97368 7.90331 6.70843 7.00017 6.70843Z" fill="black"/>
</svg>
