<svg width="548" height="580" viewBox="0 0 548 580" fill="none" xmlns="http://www.w3.org/2000/svg">
<g filter="url(#filter0_d_35_3223)">
<path d="M438.911 22H22V438.677H438.911V22Z" fill="white"/>
</g>
<path d="M78.2369 262.672C90.5298 262.672 100.495 252.707 100.495 240.414C100.495 228.121 90.5298 218.155 78.2369 218.155C65.9439 218.155 55.9785 228.121 55.9785 240.414C55.9785 252.707 65.9439 262.672 78.2369 262.672Z" fill="#E3E2E2"/>
<path d="M400.63 213.938H179.171C174.953 213.938 171.533 217.357 171.533 221.576V221.622C171.533 225.841 174.953 229.261 179.171 229.261H400.63C404.849 229.261 408.268 225.841 408.268 221.622V221.576C408.268 217.357 404.849 213.938 400.63 213.938Z" fill="#B0C3D2"/>
<path d="M400.63 251.565H179.171C174.953 251.565 171.533 254.985 171.533 259.204V259.25C171.533 263.469 174.953 266.889 179.171 266.889H400.63C404.849 266.889 408.268 263.469 408.268 259.25V259.204C408.268 254.985 404.849 251.565 400.63 251.565Z" fill="#B0C3D2"/>
<path d="M344.912 213.938H142.947C138.728 213.938 135.309 217.357 135.309 221.576V221.622C135.309 225.841 138.728 229.261 142.947 229.261H344.912C349.131 229.261 352.55 225.841 352.55 221.622V221.576C352.55 217.357 349.131 213.938 344.912 213.938Z" fill="#E3E2E2"/>
<path d="M344.912 251.565H142.947C138.728 251.565 135.309 254.985 135.309 259.204V259.25C135.309 263.469 138.728 266.889 142.947 266.889H344.912C349.131 266.889 352.55 263.469 352.55 259.25V259.204C352.55 254.985 349.131 251.565 344.912 251.565Z" fill="#E3E2E2"/>
<path d="M408.266 284.603H50.5859V406.344H408.266V284.603Z" fill="#E3E2E2"/>
<path d="M216.511 77.7168H51.6582V169.281H216.511V77.7168Z" fill="#F5C362"/>
<path d="M229.959 153.629L342.422 153.207" stroke="#E3E2E2" stroke-width="5" stroke-miterlimit="10" stroke-linecap="round"/>
<path d="M229.959 98.7568L410.416 98.335" stroke="#E3E2E2" stroke-width="5" stroke-miterlimit="10" stroke-linecap="round"/>
<path d="M229.959 116.985L342.422 116.563" stroke="#E3E2E2" stroke-width="5" stroke-miterlimit="10" stroke-linecap="round"/>
<path d="M229.959 135.261L410.416 134.839" stroke="#E3E2E2" stroke-width="5" stroke-miterlimit="10" stroke-linecap="round"/>
<path d="M110.23 105.738L90.9238 124.107L110.23 141.492" stroke="white" stroke-width="2" stroke-miterlimit="10" stroke-linecap="round"/>
<path d="M161.076 107.66L180.429 126.029L161.076 143.461" stroke="white" stroke-width="2" stroke-miterlimit="10" stroke-linecap="round"/>
<path d="M146.976 103.067L128.654 143.976" stroke="white" stroke-width="2" stroke-miterlimit="10" stroke-linecap="round"/>
<path d="M484.867 117.298C484.871 112.554 486.013 107.879 488.201 103.653C490.388 99.4282 493.559 95.7735 497.454 92.9883C501.349 90.2032 505.857 88.3665 510.61 87.6286C515.362 86.8906 520.225 87.2724 524.799 88.7426C529.373 90.2129 533.53 92.7298 536.929 96.0876C540.327 99.4454 542.872 103.549 544.354 108.062C545.836 112.575 546.213 117.37 545.455 122.055C544.697 126.74 542.826 131.181 539.993 135.016C535.639 141.511 524.336 148.785 524.336 153.156V158.15C524.336 158.629 524.143 159.089 523.8 159.427C523.456 159.766 522.991 159.956 522.505 159.956H508.238C507.997 159.957 507.758 159.911 507.536 159.82C507.313 159.73 507.111 159.597 506.941 159.429C506.771 159.261 506.636 159.062 506.544 158.842C506.452 158.623 506.406 158.388 506.406 158.15V153.136C506.406 148.765 495.097 141.446 490.749 134.997C486.926 129.866 484.865 123.665 484.867 117.298Z" fill="#FDD305"/>
<path d="M519.391 159.955C519.056 152.059 519.186 144.15 519.783 136.269C517.241 136.559 514.675 136.559 512.134 136.269C512.731 144.15 512.864 152.059 512.532 159.955H511.997C512.311 152.038 512.17 144.11 511.573 136.21C502.619 134.953 498.605 129.834 497.867 125.025C497.443 122.202 498.403 119.393 500.139 118.347C500.694 118.029 501.308 117.832 501.944 117.769C502.579 117.705 503.22 117.776 503.826 117.978C505.96 118.59 507.983 120.445 509.249 122.932C510.705 125.808 511.566 130.571 512.062 135.749C514.638 136.056 517.24 136.056 519.815 135.749C520.311 130.571 521.173 125.808 522.635 122.932C523.894 120.445 525.898 118.59 528.058 117.978C528.664 117.776 529.305 117.705 529.94 117.769C530.576 117.832 531.19 118.029 531.745 118.347C533.481 119.393 534.434 122.202 534.017 125.025C533.292 129.854 529.285 134.973 520.311 136.21C519.714 144.11 519.573 152.038 519.887 159.955H519.391ZM529.572 118.248C529.115 118.251 528.66 118.318 528.221 118.445C526.231 119.024 524.305 120.774 523.131 123.13C521.728 125.893 520.886 130.545 520.396 135.631C528.978 134.381 532.796 129.505 533.507 124.9C533.893 122.327 533.025 119.689 531.491 118.761C530.909 118.418 530.246 118.241 529.572 118.248ZM502.351 118.248C501.675 118.239 501.009 118.417 500.426 118.761C498.892 119.689 498.024 122.327 498.409 124.9C499.094 129.505 502.932 134.381 511.514 135.631C511.024 130.545 510.209 125.893 508.786 123.13C507.592 120.774 505.686 119.024 503.689 118.445C503.264 118.321 502.825 118.255 502.384 118.248H502.351Z" fill="white"/>
<path d="M540.592 118.92C540.133 118.92 539.693 118.735 539.369 118.406C539.044 118.077 538.862 117.631 538.862 117.166C538.87 111.898 537.141 106.778 533.951 102.618C530.761 98.4592 526.291 95.499 521.252 94.2077C520.83 94.0737 520.475 93.7812 520.259 93.3902C520.043 92.9992 519.984 92.5393 520.092 92.1049C520.2 91.6705 520.468 91.2945 520.841 91.0541C521.214 90.8137 521.664 90.7271 522.098 90.8121C527.886 92.2951 533.019 95.6959 536.682 100.474C540.346 105.253 542.328 111.134 542.316 117.186C542.313 117.647 542.129 118.088 541.806 118.413C541.484 118.737 541.047 118.92 540.592 118.92Z" fill="#FFEE99"/>
<path d="M515.35 92.5324C515.348 92.8805 515.45 93.2212 515.643 93.5112C515.835 93.8013 516.109 94.0278 516.431 94.1619C516.752 94.296 517.106 94.3318 517.447 94.2647C517.789 94.1976 518.103 94.0306 518.35 93.7849C518.596 93.5392 518.764 93.2259 518.833 92.8845C518.901 92.5432 518.867 92.1892 518.734 91.8675C518.601 91.5457 518.375 91.2707 518.086 91.0771C517.797 90.8836 517.456 90.7803 517.108 90.7803C516.643 90.7803 516.197 90.9647 515.867 91.293C515.537 91.6214 515.351 92.0671 515.35 92.5324Z" fill="#FFEE99"/>
<g style="mix-blend-mode:multiply" opacity="0.55">
<g style="mix-blend-mode:multiply" opacity="0.55">
<path d="M545.763 119.086C544.086 131.528 534.054 144.375 515.51 144.375C496.965 144.375 487.313 130.912 485.264 119.086C485.593 124.885 487.592 130.466 491.02 135.155C495.341 141.703 506.585 149.037 506.585 153.444V158.48C506.584 158.719 506.63 158.956 506.721 159.178C506.813 159.399 506.947 159.6 507.116 159.769C507.285 159.938 507.486 160.072 507.707 160.164C507.929 160.255 508.166 160.301 508.405 160.3H522.621C523.104 160.3 523.567 160.109 523.908 159.767C524.25 159.426 524.442 158.963 524.442 158.48V153.425C524.442 149.018 535.678 141.638 540.007 135.136C543.431 130.452 545.43 124.879 545.763 119.086Z" fill="#FFC043"/>
</g>
</g>
<path d="M524.709 155.266H505.975V164.599C505.982 166.139 506.408 167.644 507.202 168.939C507.93 170.138 508.934 171.126 510.122 171.81C511.311 172.494 512.644 172.853 514 172.853H516.741C518.097 172.854 519.431 172.497 520.62 171.812C521.808 171.128 522.812 170.14 523.539 168.939C524.32 167.65 524.734 166.153 524.734 164.626L524.709 155.266Z" fill="#28364C"/>
<path d="M505.961 162.296C506.016 162.303 506.071 162.303 506.126 162.296L524.891 160.182C525.041 160.164 525.186 160.114 525.318 160.033C525.45 159.952 525.566 159.843 525.658 159.711C525.751 159.579 525.819 159.428 525.858 159.267C525.897 159.106 525.906 158.938 525.884 158.772C525.84 158.43 525.678 158.119 525.433 157.904C525.188 157.689 524.877 157.586 524.566 157.617L505.801 159.731C505.651 159.748 505.506 159.799 505.373 159.879C505.241 159.96 505.125 160.07 505.032 160.201C504.938 160.333 504.87 160.484 504.83 160.645C504.791 160.806 504.781 160.975 504.801 161.14C504.843 161.452 504.981 161.738 505.193 161.949C505.404 162.16 505.676 162.283 505.961 162.296Z" fill="#475577"/>
<path d="M505.961 165.818H506.126L524.891 163.702C525.041 163.683 525.186 163.632 525.317 163.551C525.449 163.469 525.564 163.36 525.657 163.228C525.75 163.097 525.818 162.946 525.857 162.785C525.896 162.624 525.906 162.456 525.885 162.291C525.842 161.947 525.681 161.635 525.435 161.419C525.19 161.204 524.879 161.101 524.567 161.134L505.801 163.25C505.651 163.267 505.506 163.318 505.373 163.399C505.241 163.48 505.125 163.589 505.032 163.721C504.938 163.853 504.87 164.004 504.83 164.165C504.791 164.327 504.781 164.495 504.801 164.661C504.844 164.973 504.983 165.258 505.194 165.469C505.405 165.68 505.676 165.803 505.961 165.818Z" fill="#475577"/>
<path d="M507.133 170.507H507.291L524.912 168.434C525.06 168.416 525.204 168.364 525.334 168.281C525.464 168.198 525.579 168.087 525.67 167.953C525.762 167.819 525.829 167.666 525.868 167.502C525.907 167.339 525.917 167.168 525.896 167C525.854 166.65 525.694 166.333 525.451 166.114C525.208 165.894 524.899 165.79 524.59 165.823L506.975 167.875C506.827 167.892 506.682 167.944 506.551 168.026C506.42 168.108 506.305 168.22 506.213 168.354C506.121 168.487 506.053 168.641 506.014 168.805C505.974 168.969 505.965 169.141 505.985 169.309C506.022 169.631 506.157 169.927 506.367 170.146C506.577 170.365 506.848 170.493 507.133 170.507Z" fill="#475577"/>
<path d="M515.35 74.3652V83.745" stroke="#FFC043" stroke-width="1.58" stroke-linecap="round" stroke-linejoin="round"/>
<path d="M532.931 77.8828L529.414 86.0901" stroke="#FFC043" stroke-width="1.58" stroke-linecap="round" stroke-linejoin="round"/>
<path d="M547 88.4355L539.965 94.2979" stroke="#FFC043" stroke-width="1.58" stroke-linecap="round" stroke-linejoin="round"/>
<path d="M497.768 77.8828L502.457 86.0901" stroke="#FFC043" stroke-width="1.58" stroke-linecap="round" stroke-linejoin="round"/>
<path d="M483.693 88.4355L490.728 94.2979" stroke="#FFC043" stroke-width="1.58" stroke-linecap="round" stroke-linejoin="round"/>
<path d="M344.948 425.716C344.517 427.312 343.099 429.616 341.047 429.616C338.996 429.616 337.578 427.312 337.147 425.716C336.21 422.247 338.743 417.916 341.047 417.916C343.352 417.916 345.783 422.247 344.948 425.716Z" fill="white"/>
<path d="M259.68 397.809C259.806 397.429 259.857 397.023 260.085 397.049C259.857 396.694 259.68 396.644 259.68 397.809Z" fill="#A8C7B7"/>
<path d="M260.16 397.049L260.338 397.252C260.347 397.184 260.347 397.116 260.338 397.049H260.16Z" fill="#A8C7B7"/>
<path d="M255.63 371.874L255.655 371.57L253.654 368.126L255.63 371.874Z" fill="#A8C7B7"/>
<path d="M258.922 397.783C258.415 397.428 258.517 396.795 258.137 396.39L258.821 398.061L258.922 397.783Z" fill="#A8C7B7"/>
<path d="M257.148 415.156C258.668 415.764 257.148 416.498 258.516 415.561C258.237 414.498 257.68 415.46 257.148 415.156Z" fill="#A8C7B7"/>
<path d="M259.474 419.106C259.498 418.637 259.344 418.176 259.044 417.814C258.411 418.65 259.17 418.65 259.474 419.106Z" fill="#A8C7B7"/>
<path d="M188.54 404.19C188.362 404.57 188.21 405.001 188.008 404.925C188.21 405.355 188.413 405.431 188.54 404.19Z" fill="#A8C7B7"/>
<path d="M188.007 404.926V404.646C187.998 404.731 187.998 404.816 188.007 404.901V404.926Z" fill="#A8C7B7"/>
<path d="M201.586 451.295V450.409C200.89 450.363 200.197 450.279 199.51 450.155C199.94 451.118 200.548 450.763 201.586 451.295Z" fill="#A8C7B7"/>
<path d="M200.272 453.473L201.488 453.524L199.74 452.941L200.272 453.473Z" fill="#A8C7B7"/>
<path d="M186.566 432.023V432.327C186.946 433.67 187.326 435.012 187.731 436.329C187.25 434.911 186.896 433.467 186.566 432.023Z" fill="#A8C7B7"/>
<path d="M189.375 404.393C189.78 404.874 189.578 405.532 189.856 406.039L189.502 404.114L189.375 404.393Z" fill="#A8C7B7"/>
<path d="M194.135 386.31C192.742 385.424 194.287 384.892 192.844 385.677C192.996 386.842 193.679 386.057 194.135 386.31Z" fill="#A8C7B7"/>
<path d="M192.497 381.803C192.397 382.287 192.478 382.792 192.725 383.221C193.484 382.436 192.725 382.335 192.497 381.803Z" fill="#A8C7B7"/>
<path d="M280.951 549.167C236.429 551.421 149.259 555.828 117.501 511.432C66.2674 440.065 161.136 247.491 255.803 247.415C353.331 247.415 444.806 451.538 394.105 517.713C373.616 544.381 331.576 546.635 280.951 549.167Z" fill="#1F7AAD"/>
<path d="M190.969 401.419C191.805 398.355 200.669 401.09 206.57 397.519C213.534 393.29 211.356 383.235 214.344 362.469C218.65 332.661 227.134 325.57 229.92 323.493C232.705 321.416 237.517 317.947 241.62 319.593C252.459 323.898 246.457 360.595 245.52 366.343C242.202 386.604 238.606 408.586 222.145 416.994C211.457 422.464 196.819 421.426 194.869 416.994C194.008 415.069 195.857 413.297 194.869 409.194C193.755 404.509 190.463 403.293 190.969 401.419Z" fill="#F5C362" stroke="#9BBFAC" stroke-width="0.77" stroke-miterlimit="10"/>
<path d="M124.767 428.669H226.043V432.569H124.767V428.669Z" fill="#DBD5D5"/>
<path d="M146.867 512.991L164.842 516.206L154.556 573.719L136.581 570.504L146.867 512.991Z" fill="#FFD9C8"/>
<path d="M115.674 501.323L132.256 508.968L107.795 562.027L91.213 554.382L115.674 501.323Z" fill="#FFD9C8"/>
<path d="M245.517 253.391C240.021 257.342 238.78 263.521 237.717 268.966C235.741 278.868 236.501 294.722 245.517 300.116C250.582 303.181 254.558 300.623 257.192 304.016C261.421 309.487 253.266 318.553 257.192 323.492C260.079 327.113 268.386 327.24 272.767 323.492C277.604 319.389 274.362 313.361 276.667 300.116C279.453 284.111 285.987 282.388 284.467 272.866C283.589 268.622 281.72 264.646 279.014 261.262C276.307 257.877 272.839 255.18 268.892 253.391C266.967 252.479 254.533 246.857 245.517 253.391Z" fill="#FFD9C8"/>
<path d="M292.273 448.17C291.069 453.95 288.381 459.318 284.473 463.745C275.711 473.343 262.896 474.736 253.298 475.42C203.837 478.94 181.551 467.468 171.497 479.32C168.964 482.46 168.432 490.488 167.597 506.595C166.229 533.39 170.129 545.824 163.722 549.446C159.619 551.776 155.77 547.926 140.346 549.446C138.042 549.674 137.409 549.826 136.446 549.446C129.583 546.761 131.812 528.274 132.546 510.495C134.471 464.302 125.328 448.929 136.446 440.369C139.283 438.166 141.309 438.09 159.822 436.469C174.105 435.228 188.363 433.81 202.672 432.569C249.347 428.543 261.402 415.449 276.673 424.794C281.687 427.833 288.221 434.038 292.273 448.17Z" fill="black"/>
<path d="M210.446 440.268C199.252 431.1 188.615 434.114 152.02 432.468C132.748 431.607 132.013 430.619 128.645 432.468C113.931 440.623 124.213 461.997 109.17 494.794C100.432 513.889 88.5802 524.931 93.5946 533.769C96.1271 538.379 102.408 540.531 105.27 541.544C111.547 543.901 118.467 543.901 124.745 541.544C133.381 537.594 136.04 526.83 140.345 502.594C148.424 457.008 146.474 452.728 152.02 448.068C170.331 432.671 214.473 459.414 218.246 451.943C219.563 449.183 214.118 443.383 210.446 440.268Z" fill="black"/>
<path d="M124.743 428.67H198.77L183.194 366.344L113.068 370.244L124.743 428.67Z" fill="#DBD5D5"/>
<path d="M159.814 576.721C163.765 572.416 163.284 563.831 159.814 561.121C156.344 558.411 152.774 562.184 144.214 561.121C138.136 560.386 136.616 558.183 132.539 557.246C118.306 553.852 99.1851 571.808 101.363 576.721C102.477 579.254 108.277 576.493 124.738 576.721C146.62 577.025 154.901 582.09 159.814 576.721Z" fill="black" stroke="black" stroke-width="0.42" stroke-miterlimit="10"/>
<path d="M109.165 557.246C107.392 555.296 106.202 555.777 101.365 553.346C93.9698 549.572 94.5016 547.268 89.6898 545.546C84.878 543.823 84.2195 546.255 74.1147 545.546C67.1502 545.064 64.1871 543.646 62.4144 545.546C60.6416 547.445 61.1734 550.915 62.4144 553.346C64.3138 557.069 67.7834 557.398 77.9895 561.121C82.2948 562.691 89.6898 565.401 97.49 568.921C105.29 572.441 107.19 573.986 109.165 572.821C112.787 570.77 113.192 561.83 109.165 557.246Z" fill="black" stroke="black" stroke-width="0.42" stroke-miterlimit="10"/>
<path d="M296.143 331.368C295.484 326.886 294.117 318.452 288.368 315.793C282.214 312.931 277.174 319.567 264.993 319.668C253.875 319.668 251.874 314.299 245.517 315.793C234.399 318.326 230.018 337.472 226.042 354.743C222.412 371.366 221.1 388.412 222.142 405.394C222.547 420.26 222.826 427.807 226.042 432.644C229.258 437.482 233.64 440.774 272.767 452.12C290.875 457.362 293.408 457.641 296.143 456.02C304.222 451.259 300.347 438.089 300.043 401.494C299.967 391.187 300.6 361.759 296.143 331.368Z" fill="#F5C362" stroke="#9BBFAC" stroke-width="0.77" stroke-miterlimit="10"/>
<path d="M152.021 401.418C152.452 403.014 153.87 405.318 155.921 405.318C157.973 405.318 159.391 403.014 159.821 401.418C160.758 397.949 158.226 393.618 155.921 393.618C153.617 393.618 151.185 397.949 152.021 401.418Z" fill="white"/>
<path d="M250.586 274.767H247.471" stroke="black" stroke-width="0.25" stroke-miterlimit="10"/>
<path d="M275.504 268.536L269.882 272.284L266.159 274.766H263.044" stroke="black" stroke-width="0.25" stroke-miterlimit="10"/>
<path d="M241.235 280.996C237.794 280.996 235.005 278.207 235.005 274.766C235.005 271.325 237.794 268.536 241.235 268.536C244.676 268.536 247.465 271.325 247.465 274.766C247.465 278.207 244.676 280.996 241.235 280.996Z" stroke="black" stroke-width="0.25" stroke-miterlimit="10"/>
<path d="M256.815 280.996C253.374 280.996 250.585 278.207 250.585 274.766C250.585 271.325 253.374 268.536 256.815 268.536C260.256 268.536 263.045 271.325 263.045 274.766C263.045 278.207 260.256 280.996 256.815 280.996Z" stroke="black" stroke-width="0.25" stroke-miterlimit="10"/>
<path d="M249.02 279.452L245.905 288.797H252.135" stroke="black" stroke-width="0.31" stroke-miterlimit="10" stroke-linecap="round"/>
<path d="M247.216 294.925C247.905 295.373 248.684 295.664 249.498 295.777C250.312 295.891 251.141 295.825 251.927 295.584C252.948 295.263 253.872 294.688 254.611 293.912C254.966 293.558 255.497 294.115 255.168 294.47C254.3 295.36 253.219 296.014 252.028 296.369C251.153 296.612 250.237 296.669 249.339 296.539C248.441 296.408 247.58 296.091 246.811 295.609C246.741 295.547 246.695 295.462 246.681 295.369C246.667 295.276 246.685 295.182 246.733 295.101C246.781 295.02 246.855 294.959 246.943 294.927C247.031 294.895 247.128 294.894 247.216 294.925Z" fill="black"/>
<path d="M237.717 245.592C236.513 247.3 235.866 249.339 235.866 251.429C235.866 253.519 236.513 255.558 237.717 257.267C243.339 264.028 258.205 254.405 264.993 261.167C270.741 266.916 266.436 280.161 268.893 280.642C270.792 281.022 272.894 272.715 276.668 272.867C277.641 273.023 278.542 273.481 279.241 274.176C279.941 274.872 280.405 275.769 280.568 276.742C280.947 279.274 278.238 280.262 276.668 284.542C275.705 287.201 275.123 291.329 276.668 292.342C278.212 293.355 282.188 290.823 284.468 288.442C289.837 282.795 291.23 273.019 288.368 265.067C285.303 256.608 278.238 252.607 272.767 249.492C261.7 243.186 243.263 238.273 237.717 245.592Z" fill="#321004"/>
<path d="M256.508 275.197C256.276 275.16 256.066 275.041 255.913 274.862C255.761 274.684 255.678 274.457 255.678 274.222C255.678 273.987 255.761 273.76 255.913 273.582C256.066 273.403 256.276 273.285 256.508 273.247C256.739 273.285 256.95 273.403 257.102 273.582C257.254 273.76 257.338 273.987 257.338 274.222C257.338 274.457 257.254 274.684 257.102 274.862C256.95 275.041 256.739 275.16 256.508 275.197Z" fill="black"/>
<path d="M239.571 275.652C239.316 275.652 239.071 275.551 238.89 275.37C238.71 275.19 238.608 274.945 238.608 274.69C238.608 274.435 238.71 274.19 238.89 274.009C239.071 273.829 239.316 273.728 239.571 273.728C239.826 273.728 240.071 273.829 240.251 274.009C240.432 274.19 240.533 274.435 240.533 274.69C240.533 274.945 240.432 275.19 240.251 275.37C240.071 275.551 239.826 275.652 239.571 275.652Z" fill="black"/>
<path d="M285.94 325.62C286.725 325.62 285.94 326.405 285.408 327.064L284.293 326.228L285.94 325.62Z" fill="#A8C7B7"/>
<path d="M282.344 327.367C281.559 327.165 280.824 326.987 280.09 326.759L281.609 326.911C282.926 325.848 281.001 325.721 280.394 325.696C282.876 325.214 281.736 326.81 282.344 327.367Z" fill="#A8C7B7"/>
<path d="M278.313 327.493C277.098 327.847 277.275 326.986 277.731 326.606C277.807 326.936 278.769 327.113 278.313 327.493Z" fill="#A8C7B7"/>
<path d="M237.289 373.511C237.162 373.131 237.112 372.726 236.884 372.751C237.112 372.396 237.289 372.346 237.289 373.511Z" fill="#A8C7B7"/>
<path d="M236.809 372.751L236.631 372.954C236.622 372.886 236.622 372.818 236.631 372.751H236.809Z" fill="#A8C7B7"/>
<path d="M233.822 345.221C234.886 344.031 234.81 343.119 235.519 341.903L234.86 340.84C235.696 339.548 235.873 340.51 236.76 339.675C236.76 338.18 238.279 335.724 238.457 335.091C238.203 334.508 237.672 335.395 237.317 335.496C238.279 333.976 239.14 334.458 239.85 332.432H239.596C240.442 331.27 241.22 330.061 241.926 328.81C242.887 326.959 244.107 325.253 245.548 323.745C247.297 322.075 249.499 320.957 251.879 320.529C253.857 320.191 255.884 320.268 257.831 320.757C257.324 320.757 257.425 320.984 257.223 321.162C258.21 321.314 259.021 321.516 259.755 321.694C260.49 321.871 261.401 322.124 262.288 322.377C263.909 322.896 265.485 323.548 266.998 324.327C269.244 325.55 271.571 326.616 273.963 327.518C272.055 327.661 270.139 327.619 268.239 327.392C267.2 327.175 266.194 326.817 265.251 326.328C264.325 325.916 263.471 325.361 262.718 324.682C261.325 325.011 259.654 323.593 258.945 324.505C256.564 324.251 254.868 323.897 252.993 323.846C251.865 323.77 250.734 323.96 249.692 324.4C248.649 324.839 247.725 325.517 246.991 326.379C246.662 327.113 247.295 327.113 247.549 327.544C248.424 326.569 249.517 325.814 250.739 325.34C250.128 325.798 249.598 326.355 249.169 326.987C250.056 326.556 251.93 325.29 252.462 326.151C251.578 326.182 250.718 326.444 249.968 326.91C249.217 327.377 248.601 328.032 248.182 328.81C247.346 330.378 246.362 331.862 245.244 333.242C245.669 331.813 246.255 330.436 246.991 329.139C246.991 328.379 247.473 327.316 246.991 327.088C245.321 328.589 244.043 330.476 243.269 332.583C242.458 334.458 241.774 336.357 240.736 338.383C240.204 339.396 239.723 340.916 240.103 341.194C240.508 340.561 240.685 341.194 241.116 340.738C240.179 342.081 239.444 340.257 238.811 342.486L240.483 342.79C238.507 343.043 239.799 345.55 238.279 346.74C238.71 347.525 239.444 346.74 239.9 345.449C239.698 346.918 238.735 346.69 238.381 347.804L240.078 347.247C238.406 347.931 239.622 349.374 239.85 350.159C239.495 350.159 238.659 349.197 238.254 350.666C238.254 351.35 238.685 351.122 238.811 351.35C238.466 351.373 238.137 351.505 237.873 351.729C237.609 351.952 237.423 352.254 237.342 352.591C237.748 352.894 238.229 352.16 238.71 352.261C238.382 352.837 238.274 353.512 238.406 354.161C237.646 355.326 237.773 353.882 237.038 354.515C236.785 356.592 238.558 355.174 239.318 356.187C240.381 354.921 241.192 353.122 241.85 352.464L240.609 354.996C241.192 354.996 240.964 357.149 241.901 355.832C241.331 358.841 240.369 361.761 239.039 364.519C239.039 364.088 239.039 363.556 238.609 363.556C237.95 364.899 238.609 364.899 238.989 365.279C238.355 366.241 237.444 365.912 236.608 366.393C236.937 368.698 236.38 368.925 237.216 370.951L236.279 370.673C236.811 372.091 235.367 372.04 235.696 373.56C235.899 373.56 236.228 373.155 236.507 372.75C236.025 373.965 237.114 374.016 236.507 375.282L237.697 374.472C237.52 375.434 237.013 376.802 237.976 376.422C236.659 377.967 236.785 380.98 235.975 383.057H236.836C235.696 384.095 236.583 387.109 235.316 388.122L235.646 388.325L234.405 390.477C234.405 391.49 235.747 391.186 235.392 391.262C235.023 393.024 235.023 394.844 235.392 396.606C234.253 396.935 233.949 399.265 233.797 401.114C234.281 410.11 234.179 419.128 233.493 428.111C233.223 429.669 232.799 431.196 232.227 432.669C231.771 430.77 232.227 430.542 232.227 428.643C231.771 427.275 230.58 426.845 229.694 425.68L230.682 426.211C231.29 424.236 230.074 424.945 230.91 423.35L229.39 423.527C230.125 422.919 229.39 421.628 228.96 420.994L229.973 420.412C229.314 419.247 229.01 418.462 228.048 418.158H229.01C228.352 417.753 228.858 413.473 227.288 414.992C227.491 414.638 227.972 414.283 227.82 413.523H226.858C227.06 412.384 227.162 411.118 226.63 410.814C226.538 411.052 226.399 411.27 226.221 411.453C226.042 411.636 225.828 411.78 225.591 411.877C225.262 407.116 228.706 410.763 228.656 406.559H228.048L228.681 405.495L227.871 404.381C229.973 402.861 227.643 398.505 228.833 395.973C229.036 394.985 227.795 393.618 227.997 391.718L228.96 391.896C228.023 390.325 227.719 384.577 225.642 382.956C226.503 381.537 225.845 383.108 226.604 383.133C227.82 380.373 226.351 380.069 225.946 378.498C226.604 376.776 226.149 379.866 226.984 379.005C226.528 376.219 228.377 376.954 228.175 373.56C227.693 373.155 227.693 374.37 227.288 374.674C228.554 372.446 228.63 367.988 229.669 364.544C229.846 360.644 231.036 354.743 231.669 349.982H232.227C231.948 347.829 233.442 346.082 233.822 343.828V345.221Z" fill="#FEECC9"/>
<path d="M253.678 327.038V327.899C253.181 327.849 252.68 327.849 252.184 327.899C252.335 327.038 252.867 327.393 253.678 327.038Z" fill="#A8C7B7"/>
<path d="M252.714 324.708C253.105 324.734 253.494 324.784 253.879 324.86C253.288 324.929 252.703 325.048 252.131 325.215L252.714 324.708Z" fill="#A8C7B7"/>
<path d="M241.341 347.577L241.316 347.273L243.316 343.829L241.341 347.577Z" fill="#A8C7B7"/>
<path d="M238.049 373.484C238.555 373.129 238.454 372.496 238.834 372.091L238.15 373.762L238.049 373.484Z" fill="#A8C7B7"/>
<path d="M239.82 390.857C238.301 391.465 239.82 392.2 238.453 391.263C238.731 390.199 239.288 391.161 239.82 390.857Z" fill="#A8C7B7"/>
<path d="M237.495 394.808C237.471 394.339 237.625 393.878 237.925 393.517C238.558 394.352 237.798 394.352 237.495 394.808Z" fill="#A8C7B7"/>
<path d="M257.198 420.894C255.222 417.753 250.664 417.475 241.623 416.994C237.731 416.632 233.814 416.632 229.922 416.994C216.272 418.766 205.939 427.326 206.572 428.669C207.205 430.011 215.791 425.579 218.247 428.669C219.969 430.872 216.702 434.367 218.247 436.469C220.349 439.331 227.618 434.519 241.623 432.569C250.335 431.353 254.969 432.189 257.198 428.669C257.898 427.493 258.268 426.15 258.268 424.781C258.268 423.413 257.898 422.069 257.198 420.894Z" fill="#FFD9C8"/>
<path d="M288.368 413.093C286.722 398.177 285.456 385.058 284.468 374.143C281.378 339.852 281.328 329.57 288.368 323.492C290.451 321.624 292.958 320.292 295.673 319.613C298.387 318.933 301.226 318.926 303.943 319.592C306.476 320.428 314.985 324.201 319.518 362.468C323.393 395.188 326.66 422.54 311.743 432.67C308.983 434.544 302.094 435.202 288.368 436.57C273.173 438.09 252.482 439.964 249.418 432.67C248.911 431.48 249.418 431.505 249.418 424.895C249.418 416.006 248.253 414.765 249.418 413.195C251.773 410.004 258.282 412.232 268.893 413.195C275.374 413.753 281.893 413.719 288.368 413.093Z" fill="#F5C362" stroke="#9BBFAC" stroke-width="0.77" stroke-miterlimit="10"/>
<path d="M261.124 432.213C260.415 431.833 261.453 431.479 262.314 431.175L262.973 432.416L261.124 432.213Z" fill="#A8C7B7"/>
<path d="M265.144 432.164L267.195 433.481L265.701 432.823C264.004 433.38 265.878 434.165 266.512 434.393C263.852 433.987 265.701 432.873 265.144 432.164Z" fill="#A8C7B7"/>
<path d="M269.376 433.202C270.719 433.202 270.364 433.911 269.781 434.19C269.68 433.835 268.794 433.481 269.376 433.202Z" fill="#A8C7B7"/>
<path d="M308.429 379.892C308.606 380.271 308.758 380.702 308.961 380.626C308.758 381.057 308.556 381.133 308.429 379.892Z" fill="#A8C7B7"/>
<path d="M308.961 380.628V380.348C308.971 380.432 308.971 380.518 308.961 380.602V380.628Z" fill="#A8C7B7"/>
<path d="M318.334 408.155C317.897 409.436 317.6 410.761 317.448 412.105L318.334 413.118C317.751 414.79 317.372 413.752 316.662 414.917C316.767 416.078 316.602 417.248 316.181 418.336C315.827 419.367 315.404 420.374 314.915 421.349C314.915 422.21 315.877 420.792 316.257 420.539C315.801 421.445 315.132 422.227 314.307 422.818C313.513 423.481 312.783 424.219 312.129 425.021L312.307 425.224C306.893 430.059 300.186 433.21 293.009 434.291C293.414 434.139 293.262 433.961 293.363 433.733C286.703 435.126 279.282 435.683 274.065 433.733C277.585 433.733 283.081 431.581 286.855 432.746C287.994 431.834 290.197 432.442 290.501 431.327C292.446 430.72 294.449 430.321 296.478 430.137C298.552 429.967 300.569 429.372 302.404 428.39C302.936 427.833 302.404 427.605 302.404 427.098C301.212 427.627 299.985 428.076 298.732 428.44C299.404 428.028 300.047 427.571 300.657 427.073C299.593 427.073 297.491 428.415 296.909 427.681C298.856 427.436 300.72 426.743 302.354 425.655C304.177 424.642 305.697 423.35 307.191 422.717C306.163 423.942 304.959 425.009 303.62 425.883C303.215 426.541 302.354 427.351 302.683 427.731C305.02 427.063 307.125 425.756 308.761 423.958C309.626 423.059 310.398 422.075 311.066 421.02C311.754 419.839 312.322 418.591 312.762 417.297C313.218 416.031 313.446 414.309 312.99 414.03C312.686 414.815 312.408 414.03 312.079 414.765C312.762 413.118 313.851 414.765 314.003 412.232H312.307C314.206 411.472 312.307 409.193 313.573 407.572C312.94 406.888 312.484 408.003 312.281 409.345C312.155 407.8 313.117 407.749 313.193 406.534L311.699 407.547C313.168 406.407 311.699 405.242 311.218 404.483C311.572 404.483 312.61 405.192 312.636 403.571C312.509 402.887 312.129 403.216 311.927 403.039C312.26 402.904 312.547 402.673 312.75 402.376C312.952 402.078 313.063 401.728 313.066 401.368C312.61 401.14 312.307 402.026 311.825 402.077C311.999 401.394 311.945 400.674 311.673 400.025C312.155 398.632 312.357 400.152 312.914 399.316C312.686 397.138 311.294 399.038 310.382 398.177C309.647 399.772 309.293 401.798 308.862 402.659L309.445 399.595C308.862 399.747 308.584 397.493 307.976 399.063C307.826 395.829 308.072 392.588 308.71 389.414C308.913 389.819 309.04 390.351 309.369 390.275C309.723 388.755 309.014 388.907 308.609 388.604C308.989 387.489 309.951 387.59 310.635 386.881C309.799 384.551 310.281 384.197 309.04 382.247H310.002C309.166 380.854 310.61 380.601 310.002 379.107C309.799 379.107 309.571 379.613 309.369 380.094C309.647 378.727 308.508 378.904 308.812 377.562L307.799 378.651C307.799 377.612 308.027 376.118 307.14 376.65C308.153 374.776 307.469 371.585 307.925 369.28L307.115 369.508C308.001 368.242 306.684 365.203 307.773 364.063H307.419L308.28 361.531C308.077 360.467 306.862 360.974 307.216 360.847C307.282 358.938 306.999 357.032 306.38 355.225C307.469 354.718 307.393 352.236 307.267 350.16C306.178 345.55 305.747 340.561 304.734 336.129C304.342 333.984 303.533 331.936 302.354 330.102C301.173 328.353 299.355 327.135 297.289 326.708C295.637 326.204 293.941 325.856 292.224 325.67C294.3 324.784 294.756 325.265 296.833 325.163C298.479 324.91 299.365 323.872 301.29 323.771C300.894 323.951 300.513 324.163 300.15 324.404C300.713 324.842 301.359 325.161 302.05 325.341C302.43 325.341 302.81 325.518 303.316 326.48L304.152 325.214C304.354 326.252 306.051 327.063 306.862 327.468C306.71 327.873 306.583 328.253 306.406 328.633C307.799 329.57 308.457 330.38 309.521 330.406L308.584 330.684C309.014 330.811 309.597 332.179 310.053 333.217C310.508 334.255 310.964 334.99 311.496 333.901C311.282 334.498 311.282 335.152 311.496 335.749H312.458C312.458 337.117 312.661 338.535 313.269 338.788C313.299 338.516 313.387 338.253 313.526 338.017C313.666 337.781 313.855 337.578 314.079 337.421C315.27 342.714 311.243 339.168 311.901 343.6L312.509 343.474L312.028 344.664L312.99 345.702C311.142 347.602 314.079 351.831 313.294 354.617C313.294 355.68 314.687 356.896 314.788 358.897H313.269C314.434 360.366 315.801 366.267 317.979 367.609C317.372 369.204 317.777 367.457 317.017 367.609C316.283 370.673 317.777 370.749 318.461 372.269C318.131 374.143 318.005 370.901 317.346 371.939C318.283 374.7 316.333 374.295 317.169 377.714C317.726 378.043 317.498 376.802 317.827 376.422C316.992 378.955 317.827 383.437 317.625 387.084C318.385 391.237 318.587 397.467 319.094 402.507H318.739C319.499 404.584 318.511 406.736 318.739 409.193L318.334 408.155Z" fill="#FEECC9"/>
<path d="M295.384 426.997V426.111C296.081 426.065 296.774 425.981 297.461 425.857C297.03 426.82 296.423 426.465 295.384 426.997Z" fill="#A8C7B7"/>
<path d="M296.697 429.175L295.481 429.226L297.229 428.644L296.697 429.175Z" fill="#A8C7B7"/>
<path d="M310.402 407.726V408.03C310.022 409.372 309.643 410.714 309.237 412.031C309.719 410.613 310.073 409.169 310.402 407.726Z" fill="#A8C7B7"/>
<path d="M307.594 380.095C307.189 380.576 307.391 381.235 307.113 381.741L307.467 379.816L307.594 380.095Z" fill="#A8C7B7"/>
<path d="M302.837 362.012C304.23 361.126 302.685 360.594 304.129 361.379C303.977 362.544 303.293 361.759 302.837 362.012Z" fill="#A8C7B7"/>
<path d="M304.474 357.505C304.574 357.99 304.493 358.494 304.246 358.923C303.486 358.138 304.246 358.037 304.474 357.505Z" fill="#A8C7B7"/>
<defs>
<filter id="filter0_d_35_3223" x="0" y="0" width="460.91" height="460.677" filterUnits="userSpaceOnUse" color-interpolation-filters="sRGB">
<feFlood flood-opacity="0" result="BackgroundImageFix"/>
<feColorMatrix in="SourceAlpha" type="matrix" values="0 0 0 0 0 0 0 0 0 0 0 0 0 0 0 0 0 0 127 0" result="hardAlpha"/>
<feOffset/>
<feGaussianBlur stdDeviation="11"/>
<feColorMatrix type="matrix" values="0 0 0 0 0 0 0 0 0 0 0 0 0 0 0 0 0 0 0.15 0"/>
<feBlend mode="normal" in2="BackgroundImageFix" result="effect1_dropShadow_35_3223"/>
<feBlend mode="normal" in="SourceGraphic" in2="effect1_dropShadow_35_3223" result="shape"/>
</filter>
</defs>
</svg>
