<svg width="18" height="18" viewBox="0 0 18 18" fill="none" xmlns="http://www.w3.org/2000/svg">
<path d="M16.277 9.7666C15.2573 9.7666 14.4907 10.5965 14.4907 11.5529V13.086H13.3655H3.86443H3.50928V11.5529C3.50928 10.5965 2.74272 9.7666 1.72299 9.7666C0.703262 9.7666 0 10.5332 0 11.5529V14.8723C0 15.8287 0.766556 16.6586 1.78629 16.6586H3.87498H13.1967H16.2137C17.2334 16.6586 18 15.8287 18 14.8723V11.5529C18 10.5332 17.2967 9.7666 16.277 9.7666ZM16.7904 14.809H16.7869C16.7869 15.129 16.5302 15.3189 16.277 15.3189H12.7361H3.97695H1.71948C1.46279 15.3189 1.20961 15.129 1.20961 14.809V11.4896C1.20961 11.2329 1.39949 10.9797 1.71948 10.9797C2.03946 10.9797 2.22934 11.1696 2.22934 11.4896V13.7225C2.22934 14.1057 2.48603 14.3624 2.86931 14.3624H3.9453H12.8627H15.1307C15.514 14.3624 15.7707 14.1057 15.7707 13.7225V11.4896C15.7707 11.1696 15.9605 10.9797 16.2805 10.9797C16.6005 10.9797 16.7904 11.2364 16.7904 11.4896V14.809Z" fill="white"/>
<path d="M12.8879 6.83232L12.3781 6.32246C11.9315 5.87589 11.2282 5.81259 10.7184 6.13258V2.74285C10.7184 1.9763 10.0784 1.33984 9.31536 1.33984H8.6121C7.84554 1.33984 7.20909 1.97981 7.20909 2.74285V6.12555C6.69923 5.80556 5.99596 5.86885 5.54939 6.31543L5.03953 6.82529C4.78284 7.08198 4.65625 7.39845 4.65625 7.78173C4.65625 8.16501 4.78284 8.48499 5.03953 8.73816L8.03894 11.6813C8.29563 11.938 8.6121 12.0646 8.99538 12.0646C9.37866 12.0646 9.69864 11.938 9.95182 11.6813L12.8879 8.7452C13.1446 8.48851 13.2712 8.17204 13.2712 7.78876C13.2712 7.40548 13.1446 7.0855 12.8879 6.83232ZM11.9983 7.91535L9.06219 10.8515C9.02703 10.8866 8.97076 10.8866 8.9356 10.8515L5.99948 7.91535C5.93267 7.84854 5.96783 7.80634 6.003 7.77821L6.55506 7.22967C6.58319 7.20154 6.63242 7.20154 6.66055 7.23318L7.46578 7.99622C7.69083 8.17204 7.92994 8.21775 8.16904 8.12281C8.43628 8.01732 8.55232 7.80283 8.55232 7.54965V2.74285C8.55232 2.67253 8.60858 2.61626 8.67891 2.61626H9.38217C9.4525 2.61626 9.50876 2.67253 9.50876 2.74285V7.55317C9.50876 7.80986 9.63535 8.0138 9.89204 8.12633C10.1522 8.21775 10.3738 8.19665 10.5953 7.99974L11.3619 7.26835C11.3935 7.2367 11.4427 7.2367 11.4709 7.26835L11.9983 7.78876C11.9983 7.78876 12.0616 7.84151 11.9983 7.91535Z" fill="white"/>
</svg>
